<svg xmlns="http://www.w3.org/2000/svg" width="85.499" height="85.499" viewBox="0 0 85.499 85.499">
  <g id="Symbol_147_1" data-name="Symbol 147 – 1" transform="translate(0 0)">
    <rect id="Rectangle_193" data-name="Rectangle 193" width="85.499" height="85.499" transform="translate(0 0)" fill="none"/>
    <path id="Path_104" data-name="Path 104" d="M300.077,53.437A10.687,10.687,0,1,0,289.39,42.749,10.719,10.719,0,0,0,300.077,53.437Zm-21.909-34.2a30.136,30.136,0,0,1,12.825-6.947L295.268,0h10.687l4.275,12.29a37.315,37.315,0,0,1,12.825,6.947l12.825-2.672,5.344,9.619-8.55,9.619a30.46,30.46,0,0,1,.535,6.947c0,2.137-.535,4.809-.535,6.947l8.55,9.619-5.344,9.619-12.825-2.672a30.136,30.136,0,0,1-12.825,6.947L305.955,85.5H295.268l-4.275-12.29a37.314,37.314,0,0,1-12.825-6.947l-12.825,2.672L260,59.315l8.55-9.619a30.466,30.466,0,0,1-.534-6.947c0-2.137.534-4.809.534-6.947L260,26.184l5.344-9.619Z" transform="translate(-260 0)" fill="#e3e3e3" fill-rule="evenodd"/>
  </g>
</svg>
