<svg xmlns="http://www.w3.org/2000/svg" width="94" height="94" viewBox="0 0 94 94">
  <g id="Symbol_65" data-name="Symbol 65" transform="translate(-80 -112)" opacity="0.4">
    <rect id="Rectangle_193" data-name="Rectangle 193" width="94" height="94" transform="translate(80 112)" fill="none"/>
    <path id="Path_104" data-name="Path 104" d="M304.063,58.75A11.75,11.75,0,1,0,292.313,47,11.784,11.784,0,0,0,304.063,58.75Zm-24.088-37.6c4.113-3.525,8.813-6.462,14.1-7.638L298.775,0h11.75l4.7,13.512a41.025,41.025,0,0,1,14.1,7.638l14.1-2.938L349.3,28.787l-9.4,10.575A33.494,33.494,0,0,1,340.487,47c0,2.35-.588,5.288-.588,7.638l9.4,10.575-5.875,10.575-14.1-2.937c-4.112,3.525-8.812,6.463-14.1,7.638L310.525,94h-11.75l-4.7-13.513a41.026,41.026,0,0,1-14.1-7.638l-14.1,2.938L260,65.212l9.4-10.575A33.494,33.494,0,0,1,268.813,47c0-2.35.588-5.288.588-7.638L260,28.788l5.875-10.575Z" transform="translate(-180 112)" fill="#48b3da" fill-rule="evenodd"/>
  </g>
</svg>
