<svg id="Group_103" data-name="Group 103" xmlns="http://www.w3.org/2000/svg" width="113.885" height="109.332" viewBox="0 0 113.885 109.332">
  <g id="Symbol_9_1" data-name="Symbol 9 – 1" transform="translate(30.775 0)">
    <path id="Union_1" data-name="Union 1" d="M0,51.022V44.645c0-7.017,11.48-12.757,25.511-12.757s25.511,5.74,25.511,12.757v6.377ZM12.754,12.757A12.755,12.755,0,1,1,25.511,25.511,12.757,12.757,0,0,1,12.754,12.757Z" transform="translate(0 0)" fill="#fff"/>
  </g>
  <g id="Group_102" data-name="Group 102" transform="translate(0 58.31)">
    <g id="Symbol_63" data-name="Symbol 63" transform="translate(0 0)">
      <path id="Union_1-2" data-name="Union 1" d="M0,51.022V44.645c0-7.017,11.48-12.757,25.511-12.757s25.511,5.74,25.511,12.757v6.377ZM12.754,12.757A12.755,12.755,0,1,1,25.511,25.511,12.757,12.757,0,0,1,12.754,12.757Z" transform="translate(0 0)" fill="#fff"/>
    </g>
    <g id="Symbol_64" data-name="Symbol 64" transform="translate(62.863 0)">
      <path id="Union_1-3" data-name="Union 1" d="M0,51.022V44.645c0-7.017,11.48-12.757,25.511-12.757s25.511,5.74,25.511,12.757v6.377ZM12.754,12.757A12.755,12.755,0,1,1,25.511,25.511,12.757,12.757,0,0,1,12.754,12.757Z" transform="translate(0 0)" fill="#fff"/>
    </g>
  </g>
</svg>
