<?xml version="1.0" encoding="utf-8"?>
<!-- Generator: Adobe Illustrator 21.0.0, SVG Export Plug-In . SVG Version: 6.00 Build 0)  -->
<svg version="1.1" id="Layer_1" xmlns="http://www.w3.org/2000/svg" xmlns:xlink="http://www.w3.org/1999/xlink" x="0px" y="0px"
	 viewBox="0 0 386 94" style="enable-background:new 0 0 386 94;" xml:space="preserve">
<style type="text/css">
	.st0{fill:#4E587F;}
	.st1{fill:#E00011;}
</style>
<g>
	<path class="st0" d="M64.7,71.2c-2.4,1.2-7.5,2.5-13.9,2.5c-14.8,0-25.9-9.4-25.9-26.7c0-16.5,11.2-27.6,27.5-27.6
		c6.5,0,10.7,1.4,12.5,2.3l-1.7,5.5c-2.5-1.2-6.2-2.2-10.5-2.2c-12.3,0-20.5,7.9-20.5,21.7c0,13,7.4,21.1,20.1,21.1
		c4.2,0,8.4-0.9,11.2-2.2L64.7,71.2z"/>
	<path class="st0" d="M106.4,53.7c0,14-9.8,20.1-18.8,20.1c-10.1,0-18.1-7.5-18.1-19.4c0-12.6,8.3-20,18.7-20
		C99.1,34.3,106.4,42.2,106.4,53.7z M76.5,54.1c0,8.3,4.7,14.5,11.4,14.5c6.6,0,11.5-6.2,11.5-14.7c0-6.4-3.2-14.4-11.3-14.4
		C80,39.5,76.5,47,76.5,54.1z"/>
	<path class="st0" d="M115,45.3c0-4-0.1-7.1-0.3-10.2h6.1l0.4,6.2h0.2c1.9-3.5,6.2-7,12.5-7c5.2,0,13.3,3.1,13.3,16.1v22.5h-6.9
		V51.1c0-6.1-2.3-11.2-8.7-11.2c-4.4,0-8,3.2-9.2,7c-0.3,0.9-0.5,2-0.5,3.2v22.7H115V45.3z"/>
	<path class="st0" d="M166.3,26.1v9.1h9.8v5.2h-9.8v20.4c0,4.7,1.3,7.3,5.1,7.3c1.9,0,3-0.2,4-0.5l0.3,5.2c-1.3,0.5-3.4,0.9-6.1,0.9
		c-3.2,0-5.8-1.1-7.4-2.9c-1.9-2.1-2.7-5.5-2.7-9.9V40.3h-5.9v-5.2h5.9v-7L166.3,26.1z"/>
	<path class="st0" d="M210.4,63.8c0,3.3,0.2,6.5,0.5,9.1h-6.2l-0.5-4.8H204c-2.1,3-6.2,5.6-11.5,5.6c-7.6,0-11.5-5.4-11.5-10.8
		c0-9.1,8.1-14.1,22.7-14v-0.8c0-3-0.9-8.7-8.6-8.7c-3.6,0-7.3,1-9.9,2.8l-1.6-4.6c3.1-2,7.7-3.3,12.5-3.3
		c11.5,0,14.4,7.9,14.4,15.4V63.8z M203.8,53.6c-7.5-0.2-16,1.2-16,8.5c0,4.5,3,6.6,6.4,6.6c5,0,8.2-3.1,9.3-6.3
		c0.2-0.8,0.3-1.6,0.3-2.2V53.6z"/>
	<path class="st0" d="M248.4,71.6c-1.8,0.9-5.8,2.2-10.8,2.2c-11.4,0-18.8-7.7-18.8-19.3c0-11.6,8-20.1,20.3-20.1c4.1,0,7.6,1,9.5,2
		l-1.6,5.2c-1.6-0.9-4.2-1.8-8-1.8c-8.7,0-13.3,6.5-13.3,14.3c0,8.7,5.6,14.1,13.1,14.1c3.9,0,6.5-0.9,8.4-1.8L248.4,71.6z"/>
	<path class="st0" d="M265.7,26.1v9.1h9.8v5.2h-9.8v20.4c0,4.7,1.3,7.3,5.1,7.3c1.9,0,3-0.2,4-0.5l0.3,5.2c-1.3,0.5-3.4,0.9-6.1,0.9
		c-3.2,0-5.8-1.1-7.4-2.9c-1.9-2.1-2.7-5.5-2.7-9.9V40.3h-5.9v-5.2h5.9v-7L265.7,26.1z"/>
	<path class="st0" d="M286.6,55.2c0.2,9.3,6,13.1,13,13.1c4.9,0,8-0.9,10.5-2l1.2,4.9c-2.4,1.1-6.6,2.4-12.6,2.4
		c-11.6,0-18.6-7.7-18.6-19.1s6.7-20.3,17.7-20.3c12.4,0,15.6,10.8,15.6,17.7c0,1.4-0.1,2.4-0.2,3.2H286.6z M306.7,50.3
		c0.1-4.3-1.8-11.1-9.5-11.1c-7,0-10,6.3-10.5,11.1H306.7z"/>
	<path class="st1" d="M349,72.9l-4.8-9.5c-2-3.7-3.2-6.4-4.7-9.4h-0.2c-1.1,3-2.4,5.8-4.1,9.4l-4.3,9.5h-13.6l15.2-26.6l-14.7-26
		h13.7l4.6,9.6c1.6,3.2,2.7,5.8,4,8.7h0.2c1.2-3.4,2.3-5.7,3.6-8.7l4.4-9.6H362L347.1,46l15.6,26.9H349z"/>
</g>
</svg>
