<?xml version="1.0" encoding="utf-8"?>
<!-- Generator: Adobe Illustrator 21.0.0, SVG Export Plug-In . SVG Version: 6.00 Build 0)  -->
<svg version="1.1" id="Layer_1" xmlns="http://www.w3.org/2000/svg" xmlns:xlink="http://www.w3.org/1999/xlink" x="0px" y="0px"
	 viewBox="0 0 487 466" style="enable-background:new 0 0 487 466;" xml:space="preserve">
<style type="text/css">
	.st0{fill:#4E587F;}
</style>
<g>
	<g>
		<path class="st0" d="M345.5,234.9v157.4h-260v-255h166.2c0.8-1.1,13.8-20.6,19.8-28.5H86.7c-15,0-27.2,12.2-27.2,27.2v257.6
			c0,15,12.2,27.2,27.2,27.2h257.6c15,0,27.2-12.2,27.2-27.2V218.6C362.8,223.9,354.5,229.9,345.5,234.9z"/>
	</g>
	<g>
		<path class="st0" d="M187.6,323.5c-3.8,0-7.5-1.5-10.4-4.2c-4.1-3.9-5.6-9.8-3.9-15.2l24.4-79.4c0.7-2.2,1.8-4.2,3.4-5.8
			L370.8,37.3c2.7-2.9,6.5-4.6,10.5-4.7c4-0.1,7.8,1.3,10.8,4.1L447,88.5c6,5.6,6.3,15.1,0.7,21.1l-170.1,182
			c-1.7,1.8-3.8,3.1-6.1,3.9l0,0l-79,27.2C190.9,323.2,189.3,323.5,187.6,323.5z M216.5,231.7l-21.2,68.9l68.5-23.6L429.6,99.6
			L382,54.6L216.5,231.7z"/>
	</g>
</g>
</svg>
